<svg width="394" height="122" viewBox="0 0 394 122" fill="none" xmlns="http://www.w3.org/2000/svg">
<path d="M1.173 53V0.161496H45.4391C50.9077 0.161496 55.1446 1.54096 58.1499 4.2999C61.2044 7.05883 62.7317 11.2465 62.7317 16.8629C62.7317 21.6418 61.6232 25.386 59.4062 28.0957C57.1892 30.8054 54.0361 32.5051 49.947 33.1948L62.1405 53H48.6907L37.384 33.5643H12.997V53H1.173ZM44.035 9.7685H12.997V23.8834L44.035 23.9573C46.2027 23.9573 47.8532 23.4154 48.9863 22.3315C50.1687 21.2476 50.7599 19.4248 50.7599 16.8629C50.7599 14.2518 50.1687 12.4289 48.9863 11.3943C47.8532 10.3104 46.2027 9.7685 44.035 9.7685ZM80.6247 53C76.6341 53 73.5796 51.99 71.4611 49.9701C69.3427 47.9502 68.2834 45.0681 68.2834 41.3238C68.2834 37.6288 69.3427 34.7713 71.4611 32.7514C73.5796 30.7315 76.6341 29.7215 80.6247 29.7215H109.002V27.9479C109.002 24.9426 107.524 23.44 104.568 23.44H73.2347V14.9415H107.377C111.86 14.9415 115.038 15.9761 116.91 18.0453C118.782 20.0652 119.718 22.9227 119.718 26.6177V53H80.6247ZM82.5461 44.5015H109.002V38.22H82.5461C81.6101 38.22 80.8711 38.5156 80.3291 39.1068C79.8365 39.6487 79.5901 40.3877 79.5901 41.3238C79.5901 42.2599 79.8365 43.0235 80.3291 43.6147C80.8711 44.2059 81.6101 44.5015 82.5461 44.5015ZM174.727 53H164.011V0.161496H174.727V53ZM172.879 53H147.384C140.782 53 135.633 51.3742 131.938 48.1226C128.243 44.871 126.396 40.166 126.396 34.0077C126.396 27.8001 128.243 23.0705 131.938 19.8189C135.633 16.5673 140.782 14.9415 147.384 14.9415H172.14V23.44H147.384C144.181 23.44 141.718 24.3268 139.994 26.1004C138.319 27.8247 137.481 30.4605 137.481 34.0077C137.481 37.5056 138.319 40.1414 139.994 41.915C141.718 43.6393 144.181 44.5015 147.384 44.5015H172.879V53ZM182.866 53V14.9415H193.581V53H182.866ZM182.792 8.66V0.309295H193.655V8.66H182.792ZM221.211 53.3695C214.61 53.3695 209.461 51.7437 205.766 48.4921C202.071 45.1912 200.224 40.3631 200.224 34.0077C200.224 27.603 202.071 22.7749 205.766 19.5233C209.461 16.2224 214.61 14.572 221.211 14.572H245.968V23.0705H221.211C218.009 23.0705 215.546 23.9573 213.821 25.7309C212.146 27.5045 211.309 30.2634 211.309 34.0077C211.309 37.7027 212.146 40.437 213.821 42.2106C215.546 43.9842 218.009 44.871 221.211 44.871H246.707V53.3695H221.211ZM262.344 53C258.353 53 255.299 51.99 253.18 49.9701C251.062 47.9502 250.002 45.0681 250.002 41.3238C250.002 37.6288 251.062 34.7713 253.18 32.7514C255.299 30.7315 258.353 29.7215 262.344 29.7215H290.721V27.9479C290.721 24.9426 289.243 23.44 286.287 23.44H254.954V14.9415H289.095C293.579 14.9415 296.756 15.9761 298.629 18.0453C300.501 20.0652 301.437 22.9227 301.437 26.6177V53H262.344ZM264.265 44.5015H290.721V38.22H264.265C263.329 38.22 262.59 38.5156 262.048 39.1068C261.555 39.6487 261.309 40.3877 261.309 41.3238C261.309 42.2599 261.555 43.0235 262.048 43.6147C262.59 44.2059 263.329 44.5015 264.265 44.5015ZM309.593 53V0.161496H320.308V53H309.593ZM328.429 53V0.161496H339.144V53H328.429ZM355.837 69.6275V61.129H378.155C381.111 61.129 382.589 59.6264 382.589 56.6211V53H359.754C355.418 53 352.241 51.9161 350.221 49.7484C348.25 47.5807 347.265 44.7725 347.265 41.3238V14.9415H357.98V40.0675C357.98 43.0235 359.458 44.5015 362.414 44.5015H382.219V14.9415H393.304V57.9513C393.304 61.4492 392.294 64.2574 390.274 66.3759C388.254 68.5436 385.101 69.6275 380.815 69.6275H355.837Z" fill="#FFFDFD"/>
<path d="M0.0645003 121V68.1615H10.78V121H0.0645003ZM1.912 121V112.501H27.4075C30.6098 112.501 33.0485 111.639 34.7236 109.915C36.4479 108.141 37.3101 105.506 37.3101 102.008C37.3101 98.4605 36.4479 95.8247 34.7236 94.1004C33.0485 92.3268 30.6098 91.44 27.4075 91.44H2.651V82.9415H27.4075C34.0092 82.9415 39.1576 84.5673 42.8526 87.8189C46.5476 91.0705 48.3951 95.8001 48.3951 102.008C48.3951 108.166 46.5476 112.871 42.8526 116.123C39.1576 119.374 34.0092 121 27.4075 121H1.912ZM74.5661 121.37C67.9644 121.37 62.816 119.744 59.121 116.492C55.426 113.191 53.5785 108.363 53.5785 102.008C53.5785 95.603 55.426 90.7749 59.121 87.5233C62.816 84.2224 67.9644 82.572 74.5661 82.572H93.0411C97.3766 82.572 100.677 83.6066 102.944 85.6758C105.259 87.6957 106.417 90.6025 106.417 94.396C106.417 102.131 101.958 105.998 93.0411 105.998H65.1069C66.1415 110.58 69.2946 112.871 74.5661 112.871H104.496V121.37H74.5661ZM74.5661 91.0705C69.4916 91.0705 66.3632 93.2136 65.1808 97.4998H92.5238C93.5091 97.4998 94.2728 97.2042 94.8147 96.613C95.4059 96.0218 95.7015 95.2089 95.7015 94.1743C95.7015 92.1051 94.6423 91.0705 92.5238 91.0705H74.5661ZM134.328 121C130.042 121 126.889 119.941 124.869 117.822C122.849 115.655 121.839 112.822 121.839 109.324V91.44H110.828V82.9415H121.839V71.2653H132.555V82.9415H148.369V91.44H132.555V107.994C132.555 110.999 134.033 112.501 136.989 112.501H150.438V121H134.328ZM175.753 121C171.466 121 168.313 119.941 166.293 117.822C164.273 115.655 163.263 112.822 163.263 109.324V91.44H152.252V82.9415H163.263V71.2653H173.979V82.9415H189.794V91.44H173.979V107.994C173.979 110.999 175.457 112.501 178.413 112.501H191.863V121H175.753ZM216.881 121.37C210.28 121.37 205.131 119.744 201.436 116.492C197.741 113.191 195.894 108.363 195.894 102.008C195.894 95.603 197.741 90.7749 201.436 87.5233C205.131 84.2224 210.28 82.572 216.881 82.572H235.356C239.692 82.572 242.993 83.6066 245.259 85.6758C247.574 87.6957 248.732 90.6025 248.732 94.396C248.732 102.131 244.274 105.998 235.356 105.998H207.422C208.457 110.58 211.61 112.871 216.881 112.871H246.811V121.37H216.881ZM216.881 91.0705C211.807 91.0705 208.678 93.2136 207.496 97.4998H234.839C235.824 97.4998 236.588 97.2042 237.13 96.613C237.721 96.0218 238.017 95.2089 238.017 94.1743C238.017 92.1051 236.958 91.0705 234.839 91.0705H216.881ZM255.395 121V82.9415H284.511C288.798 82.9415 291.951 84.0254 293.971 86.1931C295.991 88.3116 297 91.1198 297 94.6177V102.525H286.137V95.9479C286.137 92.9919 284.659 91.5139 281.703 91.5139H266.258V121H255.395Z" fill="#F40000"/>
</svg>
