<svg width="2968" height="500" viewBox="0 0 2968 217" fill="none" xmlns="http://www.w3.org/2000/svg">
<path d="M24.597 215L0.845011 2.71634H48.349L65.8662 157.698L124.949 112.273V2.71634H172.453V112.569L230.943 157.698L248.757 2.71634H296.261L272.509 215H232.724L148.701 147.01L64.3817 215H24.597ZM436.089 216.485C398.284 216.485 368.99 207.479 348.207 189.467C327.424 171.257 317.032 144.338 317.032 108.71C317.032 73.2796 327.424 46.5586 348.207 28.5467C368.99 10.3368 398.977 1.23184 438.167 1.23184H491.609C530.8 1.23184 560.787 10.3368 581.57 28.5467C602.353 46.5586 612.745 73.2796 612.745 108.71C612.745 144.338 602.353 171.257 581.57 189.467C560.787 207.479 531.295 216.485 493.094 216.485H436.089ZM441.433 39.8289C419.463 39.8289 402.341 43.7875 390.07 51.7049C377.798 59.6222 370.078 72.191 366.911 89.4112H562.866C559.699 72.191 551.979 59.6222 539.707 51.7049C527.435 43.7875 510.314 39.8289 488.344 39.8289H441.433ZM442.324 177.887H488.344C510.512 177.887 527.633 173.929 539.707 166.011C551.979 158.094 559.699 145.426 562.866 128.008H366.911C370.078 145.426 377.798 158.094 390.07 166.011C402.341 173.929 419.76 177.887 442.324 177.887ZM642.335 215V2.71634H820.178C842.149 2.71634 859.171 8.25848 871.245 19.3428C883.517 30.427 889.653 47.2514 889.653 69.8158C889.653 89.0153 885.199 104.058 876.292 114.945C867.385 125.831 854.718 132.66 838.289 135.431L887.278 215H833.242L787.816 136.915H689.839V215H642.335ZM814.537 41.3134H689.839V98.0213L814.537 98.3182C823.246 98.3182 829.877 96.1409 834.429 91.7864C839.18 87.4319 841.555 80.1083 841.555 69.8158C841.555 59.3253 839.18 52.0018 834.429 47.8452C829.877 43.4906 823.246 41.3134 814.537 41.3134ZM925.318 215V3.31013H972.822V89.7081H1043.48L1113.26 3.31013H1172.34L1085.05 109.007L1172.34 215H1113.26L1043.19 128.305H972.822V215H925.318Z" fill="#E4E7ED"/>
<path d="M1196.12 215V2.71634H1422.96V41.3134H1243.63V100.1H1399.8V138.697H1243.63V215H1196.12ZM1562.8 216.485C1525 216.485 1495.7 207.479 1474.92 189.467C1454.14 171.257 1443.75 144.338 1443.75 108.71C1443.75 73.2796 1454.14 46.5586 1474.92 28.5467C1495.7 10.3368 1525.69 1.23184 1564.88 1.23184H1618.32C1657.51 1.23184 1687.5 10.3368 1708.28 28.5467C1729.07 46.5586 1739.46 73.2796 1739.46 108.71C1739.46 144.338 1729.07 171.257 1708.28 189.467C1687.5 207.479 1658.01 216.485 1619.81 216.485H1562.8ZM1568.15 39.8289C1546.18 39.8289 1529.05 43.7875 1516.78 51.7049C1504.51 59.6222 1496.79 72.191 1493.62 89.4112H1689.58C1686.41 72.191 1678.69 59.6222 1666.42 51.7049C1654.15 43.7875 1637.03 39.8289 1615.06 39.8289H1568.15ZM1569.04 177.887H1615.06C1637.23 177.887 1654.35 173.929 1666.42 166.011C1678.69 158.094 1686.41 145.426 1689.58 128.008H1493.62C1496.79 145.426 1504.51 158.094 1516.78 166.011C1529.05 173.929 1546.47 177.887 1569.04 177.887ZM1769.05 215V2.71634H1946.89C1968.86 2.71634 1985.88 8.25848 1997.96 19.3428C2010.23 30.427 2016.37 47.2514 2016.37 69.8158C2016.37 89.0153 2011.91 104.058 2003.01 114.945C1994.1 125.831 1981.43 132.66 1965 135.431L2013.99 215H1959.96L1914.53 136.915H1816.55V215H1769.05ZM1941.25 41.3134H1816.55V98.0213L1941.25 98.3182C1949.96 98.3182 1956.59 96.1409 1961.14 91.7864C1965.89 87.4319 1968.27 80.1083 1968.27 69.8158C1968.27 59.3253 1965.89 52.0018 1961.14 47.8452C1956.59 43.4906 1949.96 41.3134 1941.25 41.3134ZM2161.29 216.485C2122.1 216.485 2092.11 207.479 2071.33 189.467C2050.55 171.257 2040.16 144.338 2040.16 108.71C2040.16 73.2796 2050.55 46.4596 2071.33 28.2498C2092.11 10.0399 2122.1 1.03391 2161.29 1.23184L2268.17 1.82563V39.8289H2164.56C2138.82 39.8289 2119.72 45.272 2107.25 56.1584C2094.78 67.0447 2088.55 84.5618 2088.55 108.71C2088.55 132.858 2094.78 150.474 2107.25 161.558C2119.72 172.444 2138.82 177.887 2164.56 177.887H2271.14V216.485H2161.29ZM2300.8 215V2.71634H2533.57V41.3134H2348.31V88.2236H2516.35V126.821H2348.31V176.403H2533.57V215H2300.8Z" fill="#F40000"/>
<path d="M2563.13 215V172.543H2610.63V215H2563.13ZM2632.08 215L2727.68 2.71634H2801.01L2896.61 215H2844.95L2824.76 170.168H2703.93L2683.74 215H2632.08ZM2721.15 131.571H2807.54L2766.28 39.8289H2762.42L2721.15 131.571ZM2920.41 215V2.71634H2967.91V215H2920.41Z" fill="#D2D4D7"/>
</svg>
